<?xml version="1.0" standalone="no"?>
<!DOCTYPE svg PUBLIC "-//W3C//DTD SVG 20010904//EN"
 "http://www.w3.org/TR/2001/REC-SVG-20010904/DTD/svg10.dtd">
<svg version="1.0" xmlns="http://www.w3.org/2000/svg"
 width="1024.000000pt" height="1024.000000pt" viewBox="0 0 1024.000000 1024.000000"
 preserveAspectRatio="xMidYMid meet">
<linearGradient id="linear" x1="0%" y1="0%" x2="100%" y2="0%">
    <stop offset="0%" stop-color="hsl(218, 100%, 50%)"/>
    <stop offset="100%" stop-color="hsl(218, 100%, 25%)"/>
</linearGradient>
<g transform="translate(0.000000,1024.000000) scale(0.100000,-0.100000)"
fill="url(#linear)" stroke="none">
<path d="M7505 10165 c-49 -8 -172 -23 -273 -35 -804 -93 -1539 -302 -2802
-795 -800 -312 -920 -351 -1200 -385 -201 -24 -561 -7 -740 36 -97 23 -236 94
-309 158 -65 56 -108 73 -97 39 3 -10 32 -142 65 -293 193 -889 367 -1509 557
-1988 147 -370 249 -540 392 -654 93 -74 164 -110 391 -197 879 -339 1680
-820 2116 -1272 273 -283 447 -583 501 -866 20 -106 18 -288 -5 -398 -48 -235
-181 -453 -422 -694 -324 -324 -725 -604 -1351 -947 -702 -384 -1467 -721
-2468 -1086 -135 -49 -253 -97 -262 -106 -17 -17 -5 -22 235 -112 804 -299
1306 -404 2337 -487 157 -13 328 -17 635 -17 380 -1 448 2 715 27 686 64 1097
129 1590 253 741 185 1435 484 1910 824 183 130 295 225 451 380 395 392 615
790 731 1320 31 141 32 154 35 426 l4 281 -50 99 c-127 252 -333 448 -759 721
-403 259 -854 490 -2017 1034 -1447 676 -2077 982 -2284 1108 -144 87 -397
260 -547 372 -267 200 -400 444 -411 759 -6 156 13 280 67 441 83 248 214 445
427 641 92 84 193 160 378 283 460 307 889 424 1230 336 150 -39 389 -178 435
-253 l17 -28 89 157 c107 191 184 307 255 390 116 134 258 231 419 285 93 32
98 33 275 32 179 0 181 -1 345 -43 336 -87 552 -191 696 -335 192 -192 181
-439 -30 -686 -101 -119 -290 -354 -344 -430 -156 -217 -191 -397 -109 -564
81 -162 283 -294 514 -333 127 -21 262 -7 412 43 280 93 484 250 590 454 70
133 86 210 86 400 0 137 -4 183 -23 270 -138 615 -506 1068 -1041 1280 -122
49 -329 103 -456 120 -49 7 -148 21 -219 31 -155 23 -536 25 -681 4z"/>
<path d="M990 5639 c-416 -63 -747 -465 -898 -1091 -17 -67 -44 -193 -61 -279
l-31 -155 3 -430 c4 -427 4 -430 35 -610 109 -638 285 -1110 577 -1554 114
-174 197 -275 342 -417 167 -165 179 -166 77 -3 -36 58 -130 233 -208 390
-214 425 -285 598 -307 743 -37 246 110 447 406 558 30 11 55 24 55 28 0 4
-19 13 -42 20 -24 7 -86 31 -139 53 -124 51 -161 86 -167 160 -3 44 0 59 20
88 46 68 159 123 373 182 63 18 115 35 115 39 0 3 -34 37 -75 74 -41 37 -75
70 -75 74 0 3 42 17 93 30 261 67 591 237 827 428 105 85 257 245 313 330 218
329 157 644 -185 943 -216 189 -518 346 -751 389 -88 16 -226 21 -297 10z"/>
</g>
</svg>
