<svg xmlns="http://www.w3.org/2000/svg" xmlns:xlink="http://www.w3.org/1999/xlink" id="Capa_1" x="0px" y="0px" viewBox="0 0 512 512" style="enable-background:new 0 0 512 512;" xml:space="preserve">
<path style="fill:#96EBE6;" d="M497,105v270H15V105c0-16.5,13.5-30,30-30h422C483.5,75,497,88.5,497,105z"></path>
<path style="fill:#00C8C8;" d="M497,105v270H256V75h211C483.5,75,497,88.5,497,105z"></path>
<path style="fill:#0053BF;" d="M467,60H45C20.099,60,0,80.099,0,105v255l49.799,30h431.3L512,360V105C512,80.099,491.901,60,467,60z   M482,360H30V105c0-8.401,6.599-15,15-15h422c8.401,0,15,6.599,15,15V360z"></path>
<path style="fill:#05377F;" d="M512,105v255l-30.901,30H256v-30h226V105c0-8.401-6.599-15-15-15H256V60h211  C491.901,60,512,80.099,512,105z"></path>
<g>
	<path style="fill:#B80000;" d="M136,300c-2.739,0-5.479-0.747-7.881-2.241C123.695,295.02,121,290.2,121,285v-60   c0-41.353,33.647-75,75-75c8.291,0,15,6.709,15,15v90c0,5.684-3.208,10.869-8.291,13.418l-60,30C140.585,299.473,138.3,300,136,300   z M196,255h0.293H196z"></path>
	<path style="fill:#B80000;" d="M376,300c-2.3,0-4.585-0.527-6.709-1.582l-60-30C304.208,265.869,301,260.684,301,255v-90   c0-8.291,6.709-15,15-15c41.353,0,75,33.647,75,75v60c0,5.2-2.695,10.02-7.119,12.759C381.479,299.253,378.739,300,376,300z"></path>
</g>
<path style="fill:#FFDA45;" d="M330.099,370.199l-30-120C298.299,244.2,292.599,240,286,240h-60c-6.599,0-12.299,4.2-14.099,10.199  l-30,120c-1.802,4.501-0.901,9.6,1.8,13.5c2.999,3.9,7.5,6.301,12.299,6.301h120c4.799,0,9.3-2.401,12.299-6.301  C331,379.799,331.901,374.7,330.099,370.199z"></path>
<path style="fill:#FFBC36;" d="M328.299,383.699c-2.999,3.9-7.5,6.301-12.299,6.301h-60V240h30c6.599,0,12.299,4.2,14.099,10.199  l30,120C331.901,374.7,331,379.799,328.299,383.699z"></path>
<path style="fill:#0053BF;" d="M360.099,492.199l-30-92C328.299,394.2,322.599,390,316,390H196c-6.599,0-12.299,4.2-14.099,10.199  l-30,92c-1.802,4.501-0.901,9.6,1.8,13.5c2.999,3.9,7.5,6.301,12.299,6.301h180c4.799,0,9.3-2.401,12.299-6.301  C361,501.799,361.901,496.7,360.099,492.199z"></path>
<path style="fill:#2864F0;" d="M391,497c0,8.399-6.599,15-15,15H136c-8.401,0-15-6.601-15-15c0-8.401,6.599-15,15-15h240  C384.401,482,391,488.599,391,497z"></path>
<path style="fill:#05377F;" d="M358.299,505.699c-2.999,3.9-7.5,6.301-12.299,6.301h-90V390h60c6.599,0,12.299,4.2,14.099,10.199  l30,92C361.901,496.7,361,501.799,358.299,505.699z"></path>
<path style="fill:#2864F0;" d="M0,360v15c0,24.899,20.099,45,45,45h422c24.901,0,45-20.101,45-45v-15H0z"></path>
<g>
	<path style="fill:#0053BF;" d="M391,497c0,8.399-6.599,15-15,15H256v-30h120C384.401,482,391,488.599,391,497z"></path>
	<path style="fill:#0053BF;" d="M512,360v15c0,24.899-20.099,45-45,45H256v-60H512z"></path>
</g>
<path style="fill:#E1F1FA;" d="M331,159.899V255c0,8.399-6.599,15-15,15H196c-8.401,0-15-6.601-15-15v-95.101  c0-21.599,2.999-42.898,9-62.999c3.001-10.199,6.901-20.4,11.7-30l42.9-15.599L256,54l54.3,12.599  c4.501,9.6,8.401,19.501,11.7,29.702C328.001,116.7,331,137.999,331,159.899z"></path>
<path style="fill:#BFE1FF;" d="M331,159.899V255c0,8.399-6.599,15-15,15h-60V54l54.3,12.599c4.501,9.6,8.401,19.501,11.7,29.702  C328.001,116.7,331,137.999,331,159.899z"></path>
<path style="fill:#FF281D;" d="M310.3,66.599C296.499,81.301,277,90,256,90c-21.301,0-40.499-8.699-54.3-23.101  C212.199,43.8,226.901,22.8,245.501,4.5C248.2,1.5,252.1,0,256,0s7.8,1.5,10.499,4.501C284.801,22.8,299.5,43.801,310.3,66.599z"></path>
<path style="fill:#B80000;" d="M310.3,66.599C296.499,81.301,277,90,256,90V0c3.9,0,7.8,1.5,10.499,4.501  C284.801,22.8,299.5,43.801,310.3,66.599z"></path>
<path style="fill:#FF281D;" d="M271,165c0,8.399-6.599,15-15,15s-15-6.601-15-15c0-8.401,6.599-15,15-15S271,156.599,271,165z"></path>
<path style="fill:#B80000;" d="M256,180v-30c8.401,0,15,6.599,15,15C271,173.399,264.401,180,256,180z"></path>
<g>
</g>
<g>
</g>
<g>
</g>
<g>
</g>
<g>
</g>
<g>
</g>
<g>
</g>
<g>
</g>
<g>
</g>
<g>
</g>
<g>
</g>
<g>
</g>
<g>
</g>
<g>
</g>
<g>
</g>
</svg>